PathFileType	4	(X/Y/Z)	C:/Users/opensim2020/Desktop/walking_exp_matlab/subject01_walking08_straight_03.trc																																																																																																																															
DataRate	CameraRate	NumFrames	NumMarkers	Units	OrigDataRate	OrigDataStartFrame	OrigNumFrames																																																																																																																											
100	100	5	43	mm	100	2913	326																																																																																																																											
Frame#	Time	LFHD			RFHD			LBHD			RBHD			C7			T10			CLAV			STRN			RBAK			LSHO			LUPA			LELB			LFRM			LWRA			LWRB			LFIN			RSHO			RUPA			RELB			RFRM			RWRA			RWRB			RFIN			LASI			RASI			LPSI			RPSI			LTHI			LKNE			LTIB			LANK			LHEE			LTOE			RTHI			RKNE			RTIB			RANK			RHEE			RTOE			*39			*40			*41			*42		
		X1	Y1	Z1	X2	Y2	Z2	X3	Y3	Z3	X4	Y4	Z4	X5	Y5	Z5	X6	Y6	Z6	X7	Y7	Z7	X8	Y8	Z8	X9	Y9	Z9	X10	Y10	Z10	X11	Y11	Z11	X12	Y12	Z12	X13	Y13	Z13	X14	Y14	Z14	X15	Y15	Z15	X16	Y16	Z16	X17	Y17	Z17	X18	Y18	Z18	X19	Y19	Z19	X20	Y20	Z20	X21	Y21	Z21	X22	Y22	Z22	X23	Y23	Z23	X24	Y24	Z24	X25	Y25	Z25	X26	Y26	Z26	X27	Y27	Z27	X28	Y28	Z28	X29	Y29	Z29	X30	Y30	Z30	X31	Y31	Z31	X32	Y32	Z32	X33	Y33	Z33	X34	Y34	Z34	X35	Y35	Z35	X36	Y36	Z36	X37	Y37	Z37	X38	Y38	Z38	X39	Y39	Z39	X40	Y40	Z40	X41	Y41	Z41	X42	Y42	Z42	X43	Y43	Z43
																																																																																																																																		
204	2.03	369.39377	1677.07202	-1029.13306	391.42557	1680.37292	-916.52167	252.83015	1635.43311	-1013.08704	272.75095	1638.26892	-893.71313	216.17447	1437.13953	-973.5885	189.79631	1141.71094	-963.52386	361.14532	1372.89172	-978.18182	408.87885	1219.86292	-988.0506	170.9834	1239.01501	-894.49243	296.57385	1402.45581	-1137.55688	270.10022	1217.69666	-1221.93713	260.84299	1066.0719	-1222.66162	308.29834	961.50385	-1246.58643	397.15497	854.43927	-1227.74133	343.15677	844.30426	-1252.00049	397.01471	778.74121	-1259.97107	303.46265	1395.62451	-823.84772	268.08209	1190.09045	-721.7052	278.65167	1065.27075	-722.31232	319.58505	951.40656	-696.45709	409.51279	843.90411	-723.75629	369.67065	840.1734	-681.6261	414.33371	767.1759	-687.53363	359.10815	938.26367	-1082.29883	377.06741	941.52325	-865.32135	177.26462	945.82159	-1016.90686	190.12279	951.14972	-872.63354	382.5787	612.9707	-1152.04736	393.20834	480.96594	-1145.29626	254.07803	362.49152	-1141.15063	104.92502	207.28024	-1082.28259	61.52284	207.44603	-1019.96021	183.07979	83.88723	-1107.8335	340.09827	606.021	-816.23065	355.92044	448.78116	-848.92261	307.25757	278.03287	-843.79529	285.34354	75.3745	-900.99506	234.90187	36.99434	-950.64343	426.22757	37.85962	-908.59717	378.60553	1714.78918	-936.99683	1973.01282	1023.92499	-3102.08154	2012.4845	1021.92157	-3140.6792	NaN	NaN	NaN
205	2.04	376.50681	1676.9928	-1028.74707	398.49368	1680.28882	-916.14081	259.74893	1635.8407	-1012.61725	279.7981	1638.68359	-893.15204	222.43935	1437.49719	-972.91235	195.76974	1142.06958	-962.64392	367.27548	1373.08325	-977.63013	414.88696	1220.02185	-987.45331	177.17661	1239.33838	-893.65118	302.55566	1402.70557	-1136.92419	275.10434	1217.95313	-1221.23376	264.72342	1066.50562	-1221.58801	310.56638	961.41559	-1245.71924	397.75348	852.87189	-1227.13855	343.57281	843.64502	-1251.31848	396.36758	777.13916	-1259.44714	309.60367	1395.97766	-823.21631	274.75018	1190.32605	-720.96777	286.14856	1065.66809	-721.15869	328.1745	952.17688	-695.28687	419.10745	845.64648	-722.72589	379.34955	841.46265	-680.50824	424.67517	768.81671	-686.31268	364.90643	938.89917	-1081.58032	382.64905	941.44141	-864.55304	183.06441	946.09735	-1016.43915	195.76514	951.07037	-872.17163	392.76566	614.92798	-1151.77966	405.11368	482.95663	-1144.65576	268.28375	361.50626	-1140.82178	122.56763	202.54945	-1082.18359	78.86738	201.13203	-1019.94067	205.00404	82.46883	-1108.0105	343.51508	605.68884	-816.08337	357.97595	448.41962	-848.47931	308.69995	277.9693	-843.57098	285.24948	75.40565	-901.09912	234.64508	37.36483	-950.83112	426.32285	37.84359	-908.58765	385.71576	1714.54053	-936.81976	1973.04248	1023.35443	-3101.99121	2012.43958	1022.01904	-3140.81396	NaN	NaN	NaN
206	2.05	383.57257	1676.9342	-1028.48865	405.62262	1680.22791	-915.79993	266.66077	1636.20276	-1012.27728	286.69754	1639.06799	-892.85736	228.68633	1437.77051	-972.25537	201.75612	1142.41882	-961.74115	373.39685	1373.23462	-977.08777	420.86838	1220.09448	-986.86884	183.21077	1239.74109	-892.69397	308.53772	1402.87195	-1136.31384	280.1301	1218.17957	-1220.48511	268.616	1066.91248	-1220.67334	312.84302	961.3363	-1244.94373	398.46072	851.37213	-1226.59863	344.03104	843.05237	-1250.69653	395.80792	775.62683	-1258.77795	315.96997	1396.31824	-822.59143	281.24811	1190.57581	-720.23401	293.59811	1065.9613	-720.14008	336.79916	952.86938	-694.24353	428.65833	847.18799	-721.60559	388.99911	842.66602	-679.45447	435.14001	770.64954	-685.23553	370.71347	939.45795	-1080.94067	388.26416	941.29126	-863.88776	188.84691	946.39282	-1016.01672	201.46887	951.12207	-871.73517	402.7858	616.92377	-1151.43433	416.61761	484.89676	-1144.1709	282.58282	359.77051	-1140.55457	140.86298	197.10887	-1082.29553	96.74994	193.94727	-1020.00818	228.03481	80.70068	-1108.4397	347.09875	605.52887	-815.84845	360.15723	448.20782	-848.54126	310.0307	277.93393	-843.53467	285.16125	75.16573	-901.05042	234.95547	37.27515	-950.60114	426.34738	37.77282	-908.61285	393.0997	1714.6947	-936.44159	1973.18726	1023.43256	-3101.89697	2012.58154	1022.04016	-3140.85229	NaN	NaN	NaN
207	2.06	390.58649	1676.76721	-1028.10815	412.69635	1680.11096	-915.57751	273.52374	1636.50073	-1011.99066	293.59622	1639.40027	-892.51648	234.90579	1438.00391	-971.67139	207.73116	1142.63586	-960.85956	379.57819	1373.34607	-976.61737	426.88681	1220.16809	-986.40796	188.96758	1240.03186	-891.8219	314.56256	1403.07129	-1135.80078	285.18781	1218.35461	-1219.86121	272.59589	1067.39441	-1219.78088	315.20828	961.2207	-1244.16345	399.26175	849.93073	-1226.11499	344.61929	842.48285	-1250.1571	395.26044	774.15295	-1258.31702	322.24118	1396.61401	-822.02112	287.57651	1190.84656	-719.54071	300.90057	1066.32813	-719.0575	345.17188	953.61749	-693.17871	438.29495	848.90051	-720.57111	398.55841	843.85321	-678.56964	445.49286	772.38892	-684.24591	376.48904	939.91339	-1080.31445	393.89139	941.06439	-863.3382	194.72243	946.66711	-1015.60413	207.13275	951.12061	-871.34906	412.68118	618.60779	-1150.89917	427.86029	486.66489	-1143.47314	297.03455	357.70398	-1140.41125	159.69482	191.08734	-1082.54419	115.49064	186.12862	-1020.34998	251.23372	78.51771	-1109.16907	350.58682	605.31714	-815.6618	362.14603	447.703	-848.45532	311.18298	277.82669	-843.2467	285.23077	75.31008	-901.16455	234.9222	37.36934	-950.6474	426.40057	37.77192	-908.62659	400.24319	1714.61023	-936.20306	1973.08569	1023.46198	-3101.91211	2012.61304	1022.11963	-3140.71436	NaN	NaN	NaN
208	2.07	397.55447	1676.62	-1027.99487	419.66806	1679.98865	-915.34857	280.41296	1636.6814	-1011.64709	300.4823	1639.73767	-892.17651	241.261	1438.21411	-971.05353	213.72302	1142.8551	-960.01392	385.7724	1373.40515	-976.24774	432.91138	1220.14478	-985.93097	195.1497	1240.36633	-890.78278	320.57599	1403.14001	-1135.3396	290.28445	1218.48877	-1219.2168	276.47879	1067.62769	-1218.81799	317.62631	961.12738	-1243.40527	400.02786	848.45862	-1225.61511	345.30518	841.94244	-1249.59436	394.86719	772.75116	-1257.67114	328.60065	1396.88196	-821.56055	294.0014	1191.11865	-718.90942	308.13614	1066.58325	-718.08209	353.5632	954.22821	-692.24878	447.79703	850.72601	-719.76556	408.06781	845.19189	-677.64343	455.79672	774.19751	-683.34802	382.31927	940.30133	-1079.80127	399.5694	940.81537	-862.83319	200.39754	946.9964	-1015.29938	212.86932	951.32758	-871.00348	422.21445	620.49677	-1150.48547	438.84155	488.32278	-1142.83362	311.61673	354.98712	-1140.20471	179.16577	184.48294	-1082.86572	134.83461	177.41515	-1020.66553	275.16486	76.31371	-1110.17114	354.06055	605.11841	-815.55634	364.1214	447.37689	-848.27216	312.49957	277.66031	-843.42682	285.32129	75.36829	-901.22186	233.7688	37.78284	-950.95654	426.42697	37.73577	-908.64221	407.2359	1714.44775	-936.31305	1973.13647	1023.35358	-3101.90771	2012.56189	1022.08026	-3140.75537	NaN	NaN	NaN
